<?xml version="1.0" encoding="utf-8"?>
<!-- Generator: Adobe Illustrator 28.2.0, SVG Export Plug-In . SVG Version: 6.00 Build 0)  -->
<svg version="1.1" id="Layer_1" xmlns="http://www.w3.org/2000/svg" xmlns:xlink="http://www.w3.org/1999/xlink" x="0px" y="0px"
	 viewBox="0 0 220.2 129.3" style="enable-background:new 0 0 220.2 129.3;" xml:space="preserve">
<style type="text/css">
	.st0{fill:#009444;}
</style>
<g>
	<path class="st0" d="M220.2,95.9c-12.5-26.3-39.3-44.4-70.3-44.4c-42.9,0-77.8,34.9-77.8,77.8c0,0,0,0,0,0h148.1V95.9z"/>
	<path class="st0" d="M149.9,6c21.2,0,41.2,5.4,58.7,14.9C198.6,8.2,183.1,0,165.7,0H54.5C24.4,0,0,24.4,0,54.5v20.2
		c0,20,10.8,37.5,26.9,47C30.8,57.3,84.5,6,149.9,6z"/>
	<path class="st0" d="M37.7,126.6c5.3,1.7,11,2.7,16.9,2.7h6.5c0,0,0,0,0,0c0-49,39.9-88.8,88.8-88.8c28.6,0,54,13.6,70.3,34.6V54.5
		c0-4.9-0.7-9.7-1.9-14.2c-19-14.6-42.7-23.3-68.4-23.3C88.9,17,39.1,65.9,37.7,126.6z"/>
</g>
</svg>
