<?xml version="1.0" encoding="utf-8"?>
<!-- Generator: Adobe Illustrator 28.2.0, SVG Export Plug-In . SVG Version: 6.00 Build 0)  -->
<svg version="1.1" id="Layer_1" xmlns="http://www.w3.org/2000/svg" xmlns:xlink="http://www.w3.org/1999/xlink" x="0px" y="0px"
	 viewBox="0 0 656.7 129.3" style="enable-background:new 0 0 656.7 129.3;" xml:space="preserve">
<style type="text/css">
	.st0{fill:#009444;}
</style>
<g>
	<path class="st0" d="M220.2,95.9c-12.5-26.3-39.3-44.4-70.3-44.4c-42.9,0-77.8,34.9-77.8,77.8c0,0,0,0,0,0h148.1V95.9z"/>
	<path class="st0" d="M149.9,6c21.2,0,41.2,5.4,58.7,14.9C198.6,8.2,183.1,0,165.7,0H54.5C24.4,0,0,24.4,0,54.5v20.2
		c0,20,10.8,37.5,26.9,47C30.8,57.3,84.5,6,149.9,6z"/>
	<path class="st0" d="M37.7,126.6c5.3,1.7,11,2.7,16.9,2.7h6.5c0,0,0,0,0,0c0-49,39.9-88.8,88.8-88.8c28.6,0,54,13.6,70.3,34.6V54.5
		c0-4.9-0.7-9.7-1.9-14.2c-19-14.6-42.7-23.3-68.4-23.3C88.9,17,39.1,65.9,37.7,126.6z"/>
</g>
<g>
	<path class="st0" d="M241.4,100.1l25.5-69.7h13.3l25.5,69.7h-12.6l-22.1-63h5.1l-22.1,63H241.4z M253.2,83.7l3.3-9.5h34.2l3.3,9.5
		H253.2z"/>
	<path class="st0" d="M335.9,123.2c-4.2,0-8.3-0.7-12-2.1c-3.8-1.4-7-3.6-9.6-6.5c-2.6-2.9-4.2-6.6-4.8-11.1h11.8
		c0.7,2.9,2.4,5.1,5,6.8c2.6,1.7,5.7,2.5,9.4,2.5c2.6,0,5-0.5,7.2-1.6c2.2-1.1,4-2.8,5.3-5c1.3-2.3,1.9-5.1,1.9-8.6v-6.4
		c-1,1.7-2.3,3.2-3.9,4.6c-1.6,1.4-3.5,2.5-5.8,3.4c-2.3,0.9-4.8,1.3-7.8,1.3c-4.6,0-8.8-1.1-12.6-3.3c-3.7-2.2-6.7-5.3-8.9-9.2
		s-3.3-8.2-3.3-13.1c0-4.8,1.1-9.1,3.3-12.9c2.2-3.8,5.2-6.9,8.9-9.1c3.7-2.2,8-3.3,12.7-3.3c3.9,0,7.4,0.8,10.4,2.4
		c3,1.6,5.3,3.7,7,6.1v-7.4h11.9v46.4c0,5.6-1.2,10.4-3.5,14.3c-2.4,3.9-5.5,6.8-9.5,8.8C345.1,122.2,340.7,123.2,335.9,123.2z
		 M335.1,90.2c2.9,0,5.5-0.7,7.7-2c2.2-1.3,4-3.1,5.3-5.4c1.3-2.3,1.9-4.9,1.9-7.7c0-2.9-0.6-5.5-1.9-7.8c-1.3-2.3-3.1-4-5.3-5.3
		c-2.2-1.3-4.8-1.9-7.7-1.9c-2.9,0-5.5,0.6-7.8,1.9c-2.3,1.3-4,3.1-5.3,5.3c-1.3,2.2-1.9,4.8-1.9,7.7c0,2.9,0.6,5.5,1.9,7.8
		c1.3,2.3,3,4.1,5.3,5.4C329.6,89.5,332.2,90.2,335.1,90.2z"/>
	<path class="st0" d="M371.1,100.1V50.8h11.9v7.6c1.3-2.5,2.9-4.4,4.9-5.8c2-1.4,4.3-2.1,6.9-2.1h6.7V61h-7.9
		c-2.3,0-4.3,0.6-5.8,1.8c-1.6,1.2-2.7,3.1-3.5,5.7c-0.8,2.6-1.2,5.8-1.2,9.6v22H371.1z"/>
	<path class="st0" d="M409.1,42.3V30.1h12v12.2H409.1z M409.1,100.1V50.8h11.9v49.4H409.1z"/>
	<path class="st0" d="M431.2,100.1V30.5h27.6c4.8,0,8.9,0.8,12.2,2.3c3.3,1.5,5.8,3.6,7.5,6.3c1.7,2.7,2.5,5.8,2.5,9.2
		c0,3.5-0.8,6.5-2.3,8.9c-1.5,2.4-3.5,4.2-6,5.5c-2.5,1.3-5.2,2.1-8.1,2.4l1.5-1.1c3.2,0.1,6,0.9,8.5,2.4c2.5,1.6,4.4,3.6,5.9,6.2
		c1.4,2.6,2.1,5.4,2.1,8.6c0,3.6-0.9,6.9-2.6,9.8c-1.8,2.9-4.3,5.1-7.7,6.8c-3.4,1.6-7.5,2.4-12.4,2.4H431.2z M443.2,59.9h13.9
		c3.8,0,6.7-0.9,8.7-2.6c2-1.8,3-4.2,3-7.3c0-3.1-1-5.5-2.9-7.2c-2-1.8-4.9-2.6-8.8-2.6h-13.8V59.9z M443.2,90.4h14.9
		c3.9,0,6.9-0.9,9.1-2.7c2.2-1.8,3.2-4.4,3.2-7.8c0-3.3-1.1-6-3.3-7.9c-2.2-2-5.3-2.9-9.3-2.9h-14.6V90.4z"/>
	<path class="st0" d="M507,101.3c-5.6,0-10-1.9-13.3-5.7c-3.3-3.8-4.9-9.4-4.9-16.8V50.8h11.8v26.9c0,4.4,0.9,7.8,2.6,10.1
		c1.7,2.3,4.2,3.4,7.5,3.4c3.6,0,6.5-1.3,8.6-3.9c2.1-2.6,3.1-6.3,3.1-11V50.8h11.9v49.4h-11.9v-7.5c-1.5,2.7-3.5,4.8-6.1,6.4
		C513.7,100.6,510.6,101.3,507,101.3z"/>
	<path class="st0" d="M540.6,122v-9.6h10.5c1,0,1.8-0.1,2.4-0.4c0.6-0.3,1.3-0.8,1.9-1.6c0.6-0.8,1.3-2.1,2-3.9l4.6-10.1l-0.7,5.5
		l-21.6-51.3h13L567,86.1l14.9-35.3h12.7l-26.5,59.7c-1.1,2.5-2.1,4.5-2.9,6.1c-0.8,1.5-1.6,2.7-2.4,3.5c-0.8,0.8-1.7,1.3-2.8,1.6
		c-1.1,0.3-2.4,0.4-4,0.4H540.6z"/>
	<path class="st0" d="M642.9,100.1l-44.5-69.7h13.7l44.5,69.7H642.9z M598.6,100.1l23.7-38.4l7,9.2l-17.1,29.3H598.6z M632.6,68.6
		l-6.8-9.2l16.9-29h13.5L632.6,68.6z"/>
</g>
</svg>
